<svg width="16" height="17" viewBox="0 0 16 17" fill="none" xmlns="http://www.w3.org/2000/svg">
<path d="M8 0C3.58874 0 0 3.60805 0 8.04305C0 12.478 3.58874 16.0861 8 16.0861C12.4113 16.0861 16 12.478 16 8.04305C16 3.60805 12.4113 0 8 0ZM8 15.0398C4.16268 15.0398 1.04079 11.9011 1.04079 8.04305C1.04079 4.18502 4.16268 1.04639 8 1.04639C11.8373 1.04639 14.9592 4.18508 14.9592 8.04305C14.9592 11.901 11.8374 15.0398 8 15.0398Z" fill="black"/>
<path d="M11.264 9.35408C11.0218 9.19846 10.7 9.26956 10.5451 9.5129C10.0424 10.3031 9.18616 10.7748 8.2546 10.7748C6.75656 10.7748 5.53786 9.54952 5.53786 8.04343C5.53786 6.53733 6.75656 5.31201 8.2546 5.31201C9.15852 5.31201 10.0008 5.76236 10.5078 6.51669C10.6686 6.75602 10.992 6.81904 11.2303 6.65726C11.4684 6.49553 11.531 6.17028 11.3701 5.93083C10.6695 4.88811 9.5047 4.26562 8.2546 4.26562C6.18268 4.26562 4.49707 5.9603 4.49707 8.04343C4.49707 10.1265 6.18268 11.8212 8.2546 11.8212C9.54292 11.8212 10.727 11.1691 11.4219 10.0767C11.5768 9.83333 11.5061 9.50982 11.264 9.35408Z" fill="black"/>
</svg>
