<svg width="496" height="296" viewBox="0 0 496 296" fill="none" xmlns="http://www.w3.org/2000/svg">
<g clip-path="url(#clip0_898_15)">
<path d="M222.313 295.64H219.019V270.02C218.653 261.236 212.065 252.086 204.013 252.086C200.719 252.086 197.059 253.916 193.765 257.21C177.295 274.778 153.505 283.928 128.617 283.928C51.7567 283.928 0.882687 229.76 0.882687 148.508C0.882687 68.354 51.0247 14.918 126.421 14.918C151.309 14.918 174.733 22.604 193.399 37.976C195.229 39.806 196.693 42.368 197.425 44.93L198.889 44.564C198.157 41.636 197.791 39.44 197.791 36.146L195.961 0.643988L199.621 0.277993L205.477 113.006L199.255 113.372L197.791 89.216C194.863 46.394 160.093 21.506 122.761 21.506C64.2007 21.506 32.7247 63.962 32.7247 142.652C32.7247 230.492 66.7627 277.34 130.081 277.34C154.237 276.974 178.393 267.458 193.399 247.328V199.382C193.399 178.886 179.857 165.344 159.361 165.344H116.905V158.756H253.423V165.344H222.313V195.356V295.64ZM260.957 281V277.706H273.767C291.335 277.706 293.165 272.582 293.165 255.014V43.832C293.165 26.264 291.335 21.14 273.767 21.14H260.957V17.846H350.993V21.14H341.477C323.909 21.14 321.713 26.264 321.713 43.832V139.358H421.997V43.832C421.997 26.264 419.801 21.14 402.233 21.14H392.717V17.846H483.119V21.14H469.943C452.375 21.14 450.545 26.264 450.545 43.832V255.014C450.545 272.582 452.375 277.706 469.943 277.706H483.119V281H392.717V277.706H402.599C420.167 277.706 421.997 272.582 421.997 255.014V145.946H321.713V255.014C321.713 272.582 323.909 277.706 341.477 277.706H350.993V281H260.957Z" fill="white"/>
</g>
<defs>
<clipPath id="clip0_898_15">
<rect width="496" height="296" fill="white"/>
</clipPath>
</defs>
</svg>
