<svg width="28" height="28" viewBox="0 0 28 28" fill="none" xmlns="http://www.w3.org/2000/svg">
<path d="M22.75 2.33301H5.25C2.3555 2.33301 0 4.68851 0 7.58301V25.083C0 25.405 0.261333 25.6663 0.583333 25.6663C0.905333 25.6663 1.16667 25.405 1.16667 25.083V22.1663H26.8333V25.083C26.8333 25.405 27.0947 25.6663 27.4167 25.6663C27.7387 25.6663 28 25.405 28 25.083V7.58301C28 4.68851 25.6445 2.33301 22.75 2.33301ZM5.25 3.49967H22.75C25.0017 3.49967 26.8333 5.33134 26.8333 7.58301V16.333H24.5V14.583C24.5 12.3313 22.6683 10.4997 20.4167 10.4997H17.5C16.016 10.4997 14.7152 11.2953 14 12.4818C13.2848 11.2953 11.984 10.4997 10.5 10.4997H7.58333C5.33167 10.4997 3.5 12.3313 3.5 14.583V16.333H1.16667V7.58301C1.16667 5.33134 2.99833 3.49967 5.25 3.49967ZM14.5833 16.333V14.583C14.5833 12.9753 15.8912 11.6663 17.5 11.6663H20.4167C22.0255 11.6663 23.3333 12.9753 23.3333 14.583V16.333H14.5833ZM4.66667 16.333V14.583C4.66667 12.9753 5.97567 11.6663 7.58333 11.6663H10.5C12.1077 11.6663 13.4167 12.9753 13.4167 14.583V16.333H4.66667ZM1.16667 20.9997V17.4997H26.8333V20.9997H1.16667Z" fill="#7A3104"/>
</svg>
