<svg width="28" height="28" viewBox="0 0 28 28" fill="none" xmlns="http://www.w3.org/2000/svg">
<path d="M21.5837 5.83333C23.1937 5.83333 24.5003 4.52667 24.5003 2.91667C24.5003 1.30667 23.1937 0 21.5837 0C19.9737 0 18.667 1.30667 18.667 2.91667C18.667 4.52667 19.9737 5.83333 21.5837 5.83333ZM21.5837 1.16667C22.552 1.16667 23.3337 1.94833 23.3337 2.91667C23.3337 3.885 22.552 4.66667 21.5837 4.66667C20.6153 4.66667 19.8337 3.885 19.8337 2.91667C19.8337 1.94833 20.6153 1.16667 21.5837 1.16667ZM27.9653 20.0083L26.0287 10.6283C25.597 8.52833 23.7303 7 21.5837 7C19.437 7 17.5703 8.52833 17.1387 10.6283L15.1903 20.055C15.0853 20.8833 15.342 21.7233 15.902 22.3417C16.4503 22.9717 17.2553 23.3333 18.0837 23.3333H18.667V27.4167C18.667 27.7433 18.9237 28 19.2503 28C19.577 28 19.8337 27.7433 19.8337 27.4167V23.3333H23.3337V27.4167C23.3337 27.7433 23.5903 28 23.917 28C24.2437 28 24.5003 27.7433 24.5003 27.4167V23.3333H25.0837C25.9237 23.3333 26.717 22.9717 27.2653 22.3417C27.8137 21.7117 28.082 20.8833 27.9653 20.0083ZM26.3903 21.5717C26.052 21.945 25.5737 22.1667 25.0837 22.1667H18.0837C17.582 22.1667 17.1037 21.9567 16.777 21.5717C16.4503 21.1983 16.287 20.6967 16.3453 20.2417L18.282 10.8617C18.6087 9.29833 19.997 8.16667 21.5837 8.16667C23.1703 8.16667 24.5703 9.29833 24.8853 10.8617L26.8103 20.195C26.8687 20.6967 26.717 21.1983 26.3903 21.5717ZM6.41699 5.83333C8.02699 5.83333 9.33366 4.52667 9.33366 2.91667C9.33366 1.30667 8.02699 0 6.41699 0C4.80699 0 3.50033 1.30667 3.50033 2.91667C3.50033 4.52667 4.80699 5.83333 6.41699 5.83333ZM6.41699 1.16667C7.38533 1.16667 8.16699 1.94833 8.16699 2.91667C8.16699 3.885 7.38533 4.66667 6.41699 4.66667C5.44866 4.66667 4.66699 3.885 4.66699 2.91667C4.66699 1.94833 5.44866 1.16667 6.41699 1.16667ZM7.58366 7H5.25033C2.99866 7 1.16699 8.83167 1.16699 11.0833V15.75C1.16699 17.3717 2.12366 18.7833 3.50033 19.4367V27.4167C3.50033 27.7433 3.75699 28 4.08366 28C4.41033 28 4.66699 27.7433 4.66699 27.4167V19.7867C4.85366 19.81 5.05199 19.8333 5.25033 19.8333H7.58366C7.78199 19.8333 7.98033 19.8217 8.16699 19.7867V27.4167C8.16699 27.7433 8.42366 28 8.75033 28C9.07699 28 9.33366 27.7433 9.33366 27.4167V19.4367C10.7103 18.7833 11.667 17.3717 11.667 15.75V11.0833C11.667 8.83167 9.83533 7 7.58366 7ZM10.5003 15.75C10.5003 17.36 9.19366 18.6667 7.58366 18.6667H5.25033C3.64033 18.6667 2.33366 17.36 2.33366 15.75V11.0833C2.33366 9.47333 3.64033 8.16667 5.25033 8.16667H7.58366C9.19366 8.16667 10.5003 9.47333 10.5003 11.0833V15.75Z" fill="#7A3104"/>
</svg>
