<?xml version="1.0" encoding="UTF-8"?> <svg xmlns="http://www.w3.org/2000/svg" width="78" height="33" viewBox="0 0 78 33" fill="none"><path d="M38.3216 13.0368H39.6811C40.3787 13.0368 40.946 12.4303 40.946 11.6846V9.60806C40.946 8.86236 40.3787 8.25586 39.6811 8.25586H38.3216C37.624 8.25586 37.0566 8.86236 37.0566 9.60806V11.6846C37.0566 12.4299 37.624 13.0368 38.3216 13.0368ZM37.64 9.60773C37.64 9.20592 37.9457 8.87914 38.3216 8.87914H39.6811C40.057 8.87914 40.3627 9.20592 40.3627 9.60773V11.6842C40.3627 12.086 40.057 12.4128 39.6811 12.4128H38.3216C37.9457 12.4128 37.64 12.086 37.64 11.6842V9.60773Z" fill="#7A3104"></path><path d="M56.6694 23.6816H55.3099C54.6123 23.6816 54.0449 24.2881 54.0449 25.0338V27.1103C54.0449 27.856 54.6123 28.4625 55.3099 28.4625H56.6694C57.367 28.4625 57.9343 27.856 57.9343 27.1103V25.0338C57.9343 24.2885 57.367 23.6816 56.6694 23.6816ZM57.351 27.1107C57.351 27.5125 57.0453 27.8393 56.6694 27.8393H55.3099C54.934 27.8393 54.6283 27.5125 54.6283 27.1107V25.0342C54.6283 24.6324 54.934 24.3056 55.3099 24.3056H56.6694C57.0453 24.3056 57.351 24.6324 57.351 25.0342V27.1107Z" fill="#7A3104"></path><path d="M22.6928 23.6816H21.3333C20.6357 23.6816 20.0684 24.2881 20.0684 25.0338V27.1103C20.0684 27.856 20.6357 28.4625 21.3333 28.4625H22.6928C23.3904 28.4625 23.9578 27.856 23.9578 27.1103V25.0338C23.9581 24.2885 23.3904 23.6816 22.6928 23.6816ZM23.3744 27.1107C23.3744 27.5125 23.0687 27.8393 22.6928 27.8393H21.3333C20.9574 27.8393 20.6517 27.5125 20.6517 27.1107V25.0342C20.6517 24.6324 20.9574 24.3056 21.3333 24.3056H22.6928C23.0687 24.3056 23.3744 24.6324 23.3744 25.0342V27.1107Z" fill="#7A3104"></path><path fill-rule="evenodd" clip-rule="evenodd" d="M72.6852 31.6426H77.7103C77.8716 31.6426 78.0021 31.7822 78 31.9553C78 32.1277 77.8691 32.2672 77.7081 32.2672H61.7903H50.1873H50.1858H42.1115H35.8888H27.8145H27.8129H16.2097H0.291844C0.130529 32.2672 0 32.1274 0 31.9553C0 31.7828 0.130837 31.6433 0.291844 31.6433H5.31692V28.3729C4.89701 28.9382 4.12492 29.5197 2.72419 29.5197C2.6817 29.5197 2.6386 29.5191 2.59489 29.5181C2.43388 29.5141 2.30643 29.3713 2.31013 29.1992C2.31382 29.0294 2.44373 28.8945 2.60166 28.8945H2.60843C5.18208 28.959 5.31138 26.8726 5.31692 26.7406V24.6924C4.89701 25.2578 4.12492 25.8393 2.72419 25.8393C2.6817 25.8393 2.6386 25.8386 2.59489 25.8376C2.43388 25.8337 2.30643 25.6909 2.31013 25.5187C2.31382 25.3466 2.44835 25.2094 2.60843 25.2143C3.71978 25.2413 4.51189 24.8846 4.9632 24.1524C5.28121 23.6361 5.31446 23.1023 5.31661 23.0605V21.012C4.8967 21.5773 4.12461 22.1588 2.72388 22.1588C2.68139 22.1588 2.6383 22.1582 2.59458 22.1572C2.43357 22.1532 2.30612 22.0104 2.30982 21.8383C2.31351 21.6662 2.44804 21.5293 2.60813 21.5339C3.71947 21.5615 4.51158 21.2041 4.96289 20.4719C5.2809 19.9556 5.31415 19.4218 5.31631 19.3801V19.2339C5.31631 19.0615 5.44714 18.922 5.60815 18.922C5.76946 18.922 5.89999 19.0618 5.89999 19.2339V19.3801C5.90584 19.512 6.03268 21.5352 8.49334 21.5352C8.53121 21.5352 8.56938 21.5349 8.60848 21.5339C8.76918 21.5296 8.9031 21.6662 8.90679 21.8383C8.91079 22.0104 8.78303 22.1532 8.62203 22.1572C8.57831 22.1582 8.53521 22.1588 8.49273 22.1588C7.092 22.1588 6.3199 21.5773 5.89999 21.012V23.0605C5.90584 23.1925 6.03268 25.2157 8.49334 25.2157C8.53121 25.2157 8.56938 25.2153 8.60848 25.2143C8.76918 25.2094 8.9031 25.3466 8.90679 25.5187C8.91079 25.6909 8.78303 25.8337 8.62203 25.8376C8.57831 25.8386 8.53521 25.8393 8.49273 25.8393C7.092 25.8393 6.3199 25.2578 5.89999 24.6924V26.741C5.90584 26.8749 6.03576 28.9576 8.60848 28.8945H8.61525C8.77318 28.8945 8.9031 29.0294 8.90679 29.1992C8.91079 29.3713 8.78303 29.5141 8.62203 29.5181C8.57831 29.5191 8.53521 29.5197 8.49273 29.5197C7.092 29.5197 6.3199 28.9382 5.89999 28.3729V31.6433H15.9175V22.3513H11.5226H11.5211L11.5174 22.351C11.506 22.3507 11.4949 22.3497 11.4841 22.3484C11.4819 22.3482 11.4798 22.3478 11.4777 22.3475L11.4737 22.3467C11.4632 22.3451 11.453 22.3428 11.4432 22.3398L11.4376 22.3382C11.4256 22.3342 11.4139 22.3296 11.4025 22.3243L11.3967 22.3214C11.3875 22.3168 11.3782 22.3115 11.3693 22.3056L11.3619 22.3007C11.3521 22.2937 11.3425 22.2862 11.3333 22.2779L11.3291 22.274L11.3265 22.2714C11.3194 22.2648 11.3127 22.2575 11.3062 22.25C11.304 22.247 11.3016 22.2444 11.2991 22.2414C11.2914 22.2315 11.284 22.2213 11.2773 22.2105L11.2736 22.2042C11.2671 22.1934 11.2616 22.1825 11.2566 22.171L11.2548 22.1674L11.2539 22.1651C11.2511 22.1588 11.2486 22.1519 11.2465 22.1453C11.2452 22.1424 11.244 22.1391 11.2431 22.1358C11.242 22.1325 11.2411 22.129 11.2403 22.1256C11.2397 22.1232 11.2391 22.1208 11.2385 22.1183L11.2371 22.1126C11.2365 22.1102 11.2359 22.1078 11.2354 22.1052C11.2345 22.1009 11.2338 22.0966 11.2332 22.092C11.2323 22.0861 11.2314 22.0798 11.2308 22.0739L11.2305 22.0688L11.2302 22.0637C11.2298 22.0565 11.2292 22.0496 11.2292 22.0423V22.0397C11.2292 22.0371 11.2295 22.0344 11.2295 22.0318C11.2295 22.0252 11.2298 22.0183 11.2305 22.0117C11.2308 22.0074 11.2314 22.0028 11.232 21.9986C11.2326 21.9933 11.2332 21.9877 11.2342 21.9824C11.2347 21.9795 11.2353 21.9766 11.2359 21.9737C11.2364 21.9713 11.237 21.969 11.2375 21.9666C11.2385 21.9624 11.2394 21.9581 11.2406 21.9538C11.2422 21.9479 11.244 21.9423 11.2459 21.9367C11.2471 21.9327 11.2483 21.9288 11.2499 21.9252C11.2517 21.9199 11.2539 21.9143 11.2563 21.909C11.2582 21.9051 11.2597 21.9011 11.2616 21.8975L11.2689 21.8834C11.2711 21.8791 11.2736 21.8748 11.276 21.8709C11.2775 21.8682 11.2792 21.8656 11.2809 21.863L11.2834 21.859C11.2862 21.8544 11.2893 21.8498 11.2926 21.8455C11.2951 21.8422 11.2976 21.8389 11.3 21.836C11.3037 21.8314 11.3074 21.8268 11.3114 21.8225C11.3142 21.8195 11.3167 21.8169 11.3194 21.8143L11.3202 21.8135C11.324 21.8098 11.328 21.8058 11.332 21.8021L11.3413 21.7942C11.3453 21.7906 11.3496 21.7873 11.3539 21.784C11.3579 21.781 11.3622 21.7781 11.3662 21.7754L11.3705 21.7727C11.3728 21.7712 11.3751 21.7696 11.3776 21.7682C11.3818 21.7656 11.386 21.7634 11.3903 21.7611L11.3936 21.7593L11.4007 21.7554L27.5223 13.9778V8.86489L15.754 15.1954C15.6635 15.2442 15.5561 15.2389 15.4699 15.1823C15.384 15.1253 15.3314 15.025 15.3314 14.9167V12.8869C15.3314 12.7691 15.3935 12.6615 15.4921 12.6085L38.8691 0.0333196C38.9517 -0.0111065 39.0489 -0.0111065 39.1314 0.0333196L62.5085 12.6085C62.607 12.6612 62.6692 12.7691 62.6692 12.8869V14.9167C62.6692 15.025 62.6169 15.1253 62.5307 15.1823C62.4839 15.2132 62.4309 15.2287 62.3777 15.2287C62.3327 15.2287 62.2878 15.2178 62.2465 15.1954L50.4783 8.86489V13.9778L66.5999 21.7554C66.7252 21.8159 66.7942 21.9614 66.7652 22.1052C66.7363 22.2487 66.6177 22.3513 66.4801 22.3513H62.0834V31.6433H72.1012L72.6852 31.6426ZM50.4795 16.2271L61.8799 21.7271H65.1253L50.4795 14.6613V16.2271ZM12.8784 21.7271H16.1484L27.5242 16.239V14.6613L12.8784 21.7271ZM36.1822 31.6426H41.8215V21.5859C41.8215 20.5924 41.0654 19.7838 40.1357 19.7838H37.868C36.9386 19.7838 36.1822 20.5921 36.1822 21.5859V31.6426ZM39.0018 0.660222L15.9166 13.0785V14.4103L38.8707 2.06244C38.9119 2.04039 38.9569 2.0292 39.0018 2.0292C39.0468 2.0292 39.0917 2.04039 39.133 2.06244L62.0871 14.4103V13.0785L39.0018 0.660222ZM49.8967 8.55062L39.0018 2.69L28.1076 8.55062C28.1076 8.55588 28.1082 8.56115 28.1082 8.56675V31.6423H35.5991V21.5856C35.5991 20.2482 36.6169 19.1599 37.8683 19.1599H40.136C41.3871 19.1599 42.4051 20.2478 42.4051 21.5856V31.6423H49.8961V8.56675C49.8961 8.56148 49.8964 8.55588 49.8967 8.55062ZM16.5031 22.2404V31.6426L27.5245 31.643V16.9235L16.5031 22.2404ZM50.4795 16.9113V31.6426H61.5009V22.2286L50.4795 16.9113Z" fill="#7A3104"></path><path d="M72.6852 31.6426V28.3725C73.1051 28.9379 73.8772 29.5194 75.2779 29.5194C75.3204 29.5194 75.3635 29.5187 75.4072 29.5178C75.5682 29.5138 75.6957 29.371 75.692 29.1989C75.6883 29.0268 75.5547 28.8905 75.3937 28.8945C72.8188 28.9576 72.6907 26.8706 72.6852 26.7406V24.6924C73.1051 25.2578 73.8772 25.8393 75.2779 25.8393C75.3204 25.8393 75.3635 25.8386 75.4072 25.8376C75.5682 25.8337 75.6957 25.6909 75.692 25.5187C75.6883 25.3466 75.5547 25.2111 75.3937 25.2143C75.3546 25.2153 75.3164 25.2157 75.2785 25.2157C72.8157 25.2157 72.6907 23.1888 72.6852 23.0602V21.012C73.1051 21.5773 73.8772 22.1588 75.2779 22.1588C75.3204 22.1588 75.3635 22.1582 75.4072 22.1572C75.5682 22.1532 75.6957 22.0104 75.692 21.8383C75.6883 21.6662 75.5547 21.5286 75.3937 21.5339C75.3546 21.5349 75.3164 21.5352 75.2785 21.5352C72.8157 21.5352 72.6907 19.5084 72.6852 19.3797V19.2339C72.6852 19.0618 72.5547 18.922 72.3934 18.922C72.2324 18.922 72.1015 19.0615 72.1015 19.2339V19.3797C72.0997 19.4202 72.0664 19.955 71.7481 20.4716C71.2968 21.2038 70.5038 21.5602 69.3933 21.5336H69.3863C69.2283 21.5336 69.0984 21.6685 69.0947 21.8383C69.091 22.0104 69.2185 22.1532 69.3795 22.1572C69.4232 22.1582 69.4663 22.1588 69.5088 22.1588C70.9095 22.1588 71.6816 21.5773 72.1015 21.012V23.0602C72.0997 23.1007 72.0664 23.6354 71.7481 24.1521C71.2968 24.8843 70.5038 25.2413 69.3933 25.214H69.3863C69.2283 25.214 69.0984 25.3489 69.0947 25.5187C69.091 25.6909 69.2185 25.8337 69.3795 25.8376C69.4232 25.8386 69.4663 25.8393 69.5088 25.8393C70.9095 25.8393 71.6816 25.2578 72.1015 24.6924V26.741C72.0957 26.8769 71.9645 28.96 69.393 28.8945H69.386C69.228 28.8945 69.0981 29.0294 69.0944 29.1992C69.0907 29.3713 69.2182 29.5141 69.3792 29.5181C69.4229 29.5191 69.466 29.5197 69.5085 29.5197C70.9092 29.5197 71.6813 28.9382 72.1012 28.3729V31.6433L72.6852 31.6426Z" fill="#7A3104"></path></svg> 